  0
SECTION
  2
ENTITIES
  0
LINE
  8
LINES
 10
 102.903030395508 
 20
 97.2529373168945 
 11
 162.903030395508 
 21
 97.2529373168945 
  0
LINE
  8
LINES
 10
 162.903030395508 
 20
 97.2529373168945 
 11
 198.258370789462 
 21
 132.608275041595 
  0
LINE
  8
LINES
 10
 198.258370789462 
 20
 132.608275041595 
 11
 233.613711183417 
 21
 167.963612766295 
  0
LINE
  8
LINES
 10
 233.613711183417 
 20
 167.963612766295 
 11
 283.613711183417 
 21
 167.963612766295 
  0
LINE
  8
LINES
 10
 283.613711183417 
 20
 167.963612766295 
 11
 343.613711183417 
 21
 167.963612766295 
  0
LINE
  8
LINES
 10
 343.613711183417 
 20
 167.963612766295 
 11
 396.646721774348 
 21
 114.930606179245 
  0
LINE
  8
LINES
 10
 198.258370789462 
 20
 132.608275041595 
 11
 162.903035734016 
 21
 167.963618104803 
  0
LINE
  8
LINES
 10
 162.903035734016 
 20
 167.963618104803 
 11
 162.903039735405 
 21
 220.963618104803 
  0
LINE
  8
LINES
 10
 162.903039735405 
 20
 220.963618104803 
 11
 112.903039735405 
 21
 220.963625654593 
  0
LINE
  8
LINES
 10
 162.903039735405 
 20
 220.963618104803 
 11
 212.903039735405 
 21
 220.963618104803 
  0
CIRCLE
  8
MANHOLES
 10
 162.903030395508 
 20
 97.2529373168945 
 40
 3 
 62
7
  0
CIRCLE
  8
MANHOLES
 10
 198.258370789462 
 20
 132.608275041595 
 40
 3 
 62
7
  0
CIRCLE
  8
MANHOLES
 10
 233.613711183417 
 20
 167.963612766295 
 40
 3 
 62
7
  0
SOLID
  8
INLETS
 10
 282.613711183417 
 20
 169.963612766295 
 11
 284.613711183417 
 21
 169.963612766295 
 12
 282.613711183417 
 22
 165.963612766295 
 13
 284.613711183417 
 23
 165.963612766295 
 62
7
  0
SOLID
  8
INLETS
 10
 340.613711183417 
 20
 169.963612766295 
 11
 346.613711183417 
 21
 169.963612766295 
 12
 340.613711183417 
 22
 165.963612766295 
 13
 346.613711183417 
 23
 165.963612766295 
 62
7
  0
SOLID
  8
INLETS
 10
 395.146721774348 
 20
 115.930606179245 
 11
 398.146721774348 
 21
 115.930606179245 
 12
 395.146721774348 
 22
 113.930606179245 
 13
 398.146721774348 
 23
 113.930606179245 
 62
7
  0
SOLID
  8
INLETS
 10
 162.903035734016 
 20
 167.963618104803 
 11
 162.903035734016 
 21
 167.963618104803 
 12
 162.903035734016 
 22
 167.963618104803 
 13
 162.903035734016 
 23
 167.963618104803 
 62
7
  0
SOLID
  8
INLETS
 10
 157.903039735405 
 20
 222.963618104803 
 11
 167.903039735405 
 21
 222.963618104803 
 12
 157.903039735405 
 22
 218.963618104803 
 13
 167.903039735405 
 23
 218.963618104803 
 62
7
  0
SOLID
  8
INLETS
 10
 110.903039735405 
 20
 223.963625654593 
 11
 114.903039735405 
 21
 223.963625654593 
 12
 110.903039735405 
 22
 217.963625654593 
 13
 114.903039735405 
 23
 217.963625654593 
 62
7
  0
SOLID
  8
INLETS
 10
 210.903039735405 
 20
 222.963618104803 
 11
 214.903039735405 
 21
 222.963618104803 
 12
 210.903039735405 
 22
 218.963618104803 
 13
 214.903039735405 
 23
 218.963618104803 
 62
7
  0
TEXT
  8
LINE NUMBERS
 10
 132.903 
 20
 102.2529 
 40
 5 
  1
1
 50
 0 
  0
TEXT
  8
LINE NUMBERS
 10
 180.5807 
 20
 114.9306 
 40
 5 
  1
2
 50
 45 
  0
TEXT
  8
LINE NUMBERS
 10
 215.936 
 20
 150.2859 
 40
 5 
  1
3
 50
 45 
  0
TEXT
  8
LINE NUMBERS
 10
 258.6137 
 20
 172.9636 
 40
 5 
  1
4
 50
 0 
  0
TEXT
  8
LINE NUMBERS
 10
 313.6137 
 20
 172.9636 
 40
 5 
  1
5
 50
 0 
  0
TEXT
  8
LINE NUMBERS
 10
 370.1302 
 20
 146.4471 
 40
 5 
  1
6
 50
-45 
  0
TEXT
  8
LINE NUMBERS
 10
 185.5807 
 20
 155.2859 
 40
 5 
  1
7
 50
-45 
  0
TEXT
  8
LINE NUMBERS
 10
 157.903 
 20
 194.4636 
 40
 5 
  1
8
 50
 90 
  0
TEXT
  8
LINE NUMBERS
 10
 137.903 
 20
 225.9636 
 40
 5 
  1
9
 50
-8.651422E-06 
  0
TEXT
  8
LINE NUMBERS
 10
 187.903 
 20
 225.9636 
 40
 5 
  1
10
 50
 0 
  0
ENDSEC
  0
EOF
