  0
SECTION
  2
HEADER
  9
$ACADVER
  1
AC1014
  9
$ACADMAINTVER
 70
     0
  9
$DWGCODEPAGE
  3
ANSI_1252
  9
$INSBASE
 10
0.0000
 20
0.0000
 30
0.0000
  9
$EXTMIN
 10
137.5230
 20
40.8153
 30
0.0000
  9
$EXTMAX
 10
1651.8094
 20
1920.7293
 30
0.0000
  9
$LIMMIN
 10
137.5230
 20
40.8153
  9
$LIMMAX
 10
1651.8094
 20
1920.7293
  9
$ORTHOMODE
 70
     0
  9
$REGENMODE
 70
     1
  9
$FILLMODE
 70
     1
  9
$QTEXTMODE
 70
     0
  9
$MIRRTEXT
 70
     1
  9
$DRAGMODE
 70
     2
  9
$LTSCALE
 40
1.0
  9
$OSMODE
 70
     0
  9
$ATTMODE
 70
     1
  9
$TEXTSIZE
 40
0.2
  9
$TRACEWID
 40
0.05
  9
$TEXTSTYLE
  7
STANDARD
  9
$CLAYER
  8
DEFAULT
  9
$CELTYPE
  6
BYLAYER
  9
$CECOLOR
 62
   256
  9
$CELTSCALE
 40
1.0
  9
$DELOBJ
 70
     1
  9
$DISPSILH
 70
     0
  9
$DIMSCALE
 40
1.0
  9
$DIMASZ
 40
0.18
  9
$DIMEXO
 40
0.0625
  9
$DIMDLI
 40
0.38
  9
$DIMRND
 40
0.0
  9
$DIMDLE
 40
0.0
  9
$DIMEXE
 40
0.18
  9
$DIMTP
 40
0.0
  9
$DIMTM
 40
0.0
  9
$DIMTXT
 40
0.18
  9
$DIMCEN
 40
0.09
  9
$DIMTSZ
 40
0.0
  9
$DIMTOL
 70
     0
  9
$DIMLIM
 70
     0
  9
$DIMTIH
 70
     1
  9
$DIMTOH
 70
     1
  9
$DIMSE1
 70
     0
  9
$DIMSE2
 70
     0
  9
$DIMTAD
 70
     0
  9
$DIMZIN
 70
     0
  9
$DIMBLK
  1

  9
$DIMASO
 70
     1
  9
$DIMSHO
 70
     1
  9
$DIMPOST
  1

  9
$DIMAPOST
  1

  9
$DIMALT
 70
     0
  9
$DIMALTD
 70
     2
  9
$DIMALTF
 40
25.4
  9
$DIMLFAC
 40
1.0
  9
$DIMTOFL
 70
     0
  9
$DIMTVP
 40
0.0
  9
$DIMTIX
 70
     0
  9
$DIMSOXD
 70
     0
  9
$DIMSAH
 70
     0
  9
$DIMBLK1
  1

  9
$DIMBLK2
  1

  9
$DIMSTYLE
  2
STANDARD
  9
$DIMCLRD
 70
     0
  9
$DIMCLRE
 70
     0
  9
$DIMCLRT
 70
     0
  9
$DIMTFAC
 40
1.0
  9
$DIMGAP
 40
0.09
  9
$DIMJUST
 70
     0
  9
$DIMSD1
 70
     0
  9
$DIMSD2
 70
     0
  9
$DIMTOLJ
 70
     1
  9
$DIMTZIN
 70
     0
  9
$DIMALTZ
 70
     0
  9
$DIMALTTZ
 70
     0
  9
$DIMFIT
 70
     3
  9
$DIMUPT
 70
     0
  9
$DIMUNIT
 70
     2
  9
$DIMDEC
 70
     4
  9
$DIMTDEC
 70
     4
  9
$DIMALTU
 70
     2
  9
$DIMALTTD
 70
     2
  9
$DIMTXSTY
  7
STANDARD
  9
$DIMAUNIT
 70
     0
  9
$LUNITS
 70
     2
  9
$LUPREC
 70
     4
  9
$SKETCHINC
 40
0.1
  9
$FILLETRAD
 40
0.5
  9
$AUNITS
 70
     0
  9
$AUPREC
 70
     0
  9
$MENU
  1
.
  9
$ELEVATION
 40
0.0
  9
$PELEVATION
 40
0.0
  9
$THICKNESS
 40
0.0
  9
$LIMCHECK
 70
     0
  9
$BLIPMODE
 70
     0
  9
$CHAMFERA
 40
0.5
  9
$CHAMFERB
 40
0.5
  9
$CHAMFERC
 40
1.0
  9
$CHAMFERD
 40
0.0
  9
$SKPOLY
 70
     0
  9
$TDCREATE
 40
2452464.478865740
  9
$TDUPDATE
 40
2452464.478865740
  9
$TDINDWG
 40
0.0000000000
  9
$TDUSRTIMER
 40
0.0000000000
  9
$USRTIMER
 70
     1
  9
$ANGBASE
 50
0.0
  9
$ANGDIR
 70
     0
  9
$PDMODE
 70
     0
  9
$PDSIZE
 40
0.0
  9
$PLINEWID
 40
0.0
  9
$COORDS
 70
     1
  9
$SPLFRAME
 70
     0
  9
$SPLINETYPE
 70
     6
  9
$SPLINESEGS
 70
     8
  9
$ATTDIA
 70
     0
  9
$ATTREQ
 70
     1
  9
$HANDLING
 70
     1
  9
$HANDSEED
  5
C3
  9
$SURFTAB1
 70
     6
  9
$SURFTAB2
 70
     6
  9
$SURFTYPE
 70
     6
  9
$SURFU
 70
     6
  9
$SURFV
 70
     6
  9
$UCSNAME
  2

  9
$UCSORG
 10
0.0
 20
0.0
 30
0.0
  9
$UCSXDIR
 10
1.0
 20
0.0
 30
0.0
  9
$UCSYDIR
 10
0.0
 20
1.0
 30
0.0
  9
$PUCSNAME
  2

  9
$PUCSORG
 10
0.0
 20
0.0
 30
0.0
  9
$PUCSXDIR
 10
1.0
 20
0.0
 30
0.0
  9
$PUCSYDIR
 10
0.0
 20
1.0
 30
0.0
  9
$USERI1
 70
     0
  9
$USERI2
 70
     0
  9
$USERI3
 70
     0
  9
$USERI4
 70
     0
  9
$USERI5
 70
     0
  9
$USERR1
 40
0.0
  9
$USERR2
 40
0.0
  9
$USERR3
 40
0.0
  9
$USERR4
 40
0.0
  9
$USERR5
 40
0.0
  9
$WORLDVIEW
 70
     1
  9
$SHADEDGE
 70
     3
  9
$SHADEDIF
 70
    70
  9
$TILEMODE
 70
     1
  9
$MAXACTVP
 70
    48
  9
$PINSBASE
 10
0.0
 20
0.0
 30
0.0
  9
$PLIMCHECK
 70
     0
  9
$PEXTMIN
 10
1.000000E+20
 20
1.000000E+20
 30
1.000000E+20
  9
$PEXTMAX
 10
-1.000000E+20
 20
-1.000000E+20
 30
-1.000000E+20
  9
$PLIMMIN
 10
0.0
 20
0.0
  9
$PLIMMAX
 10
12.0
 20
9.0
  9
$UNITMODE
 70
     0
  9
$VISRETAIN
 70
     1
  9
$PLINEGEN
 70
     0
  9
$PSLTSCALE
 70
     1
  9
$TREEDEPTH
 70
  3020
  9
$PICKSTYLE
 70
     1
  9
$CMLSTYLE
  2
STANDARD
  9
$CMLJUST
 70
     0
  9
$CMLSCALE
 40
1.0
  9
$PROXYGRAPHICS
 70
     1
  9
$MEASUREMENT
 70
     0
  0
ENDSEC
  0
SECTION
  2
CLASSES
  0
ENDSEC
  0
SECTION
  2
TABLES
  0
TABLE
  2
VPORT
  5
8
100
AcDbSymbolTable
 70
     1
  0
VPORT
  5
1E
100
AcDbSymbolTableRecord
100
AcDbViewportTableRecord
  2
*ACTIVE
 70
     0
 10
0.0000
 20
0.0000
 11
1.0000
 21
1.0000
 12
899.3031
 22
960.8105
 13
0.0000
 23
0.0000
 14
0.1000
 24
0.1000
 15
0.1000
 25
0.1000
 16
0.0000
 26
0.0000
 36
1.0000
 17
0.0000
 27
0.0000
 37
0.0000
 40
5.3782
 41
1.6855
 42
50.0
 43
0.0
 44
0.0
 50
0.0
 51
0.0
 71
    0
 72
  100
 73
    1
 74
    1
 75
    0
 76
    0
 77
    0
 78
    0
  0
ENDTAB
  0
TABLE
  2
LTYPE
  5
5
100
AcDbSymbolTable
 70
     3
  0
LTYPE
  5
12
100
AcDbSymbolTableRecord
100
AcDbLinetypeTableRecord
  2
BYBLOCK
 70
     0
  3

 72
    65
 73
     0
 40
0.0
  0
LTYPE
  5
13
100
AcDbSymbolTableRecord
100
AcDbLinetypeTableRecord
  2
BYLAYER
 70
     0
  3

 72
    65
 73
     0
 40
0.0
  0
LTYPE
  5
14
100
AcDbSymbolTableRecord
100
AcDbLinetypeTableRecord
  2
CONTINUOUS
 70
     0
  3
Solid line
 72
    65
 73
     0
 40
0.0
  0
ENDTAB
  0
TABLE
  2
LAYER
  5
2
100
AcDbSymbolTable
 70
     3
  0
LAYER
  5
E
100
AcDbSymbolTableRecord
100
AcDbLayerTableRecord
  2
0
 70
     0
 62
     7
  6
CONTINUOUS
  0
LAYER
  5
20
100
AcDbSymbolTableRecord
100
AcDbLayerTableRecord
  2
DEFAULT
 70
     0
 62
     7
  6
CONTINUOUS
  0
LAYER
  5
21
100
AcDbSymbolTableRecord
100
AcDbLayerTableRecord
  2
DEFAULT1
 70
     0
 62
     7
  6
CONTINUOUS
  0
ENDTAB
  0
TABLE
  2
STYLE
  5
3
100
AcDbSymbolTable
 70
     1
  0
STYLE
  5
F
100
AcDbSymbolTableRecord
100
AcDbTextStyleTableRecord
  2
STANDARD
 70
     0
 40
0.0
 41
1.0
 50
0.0
 71
     0
 42
0.2
  3
txt
  4

  0
ENDTAB
  0
TABLE
  2
VIEW
  5
6
100
AcDbSymbolTable
 70
     0
  0
ENDTAB
  0
TABLE
  2
UCS
  5
7
100
AcDbSymbolTable
 70
     0
  0
ENDTAB
  0
TABLE
  2
APPID
  5
9
100
AcDbSymbolTable
 70
     1
  0
APPID
  5
10
100
AcDbSymbolTableRecord
100
AcDbRegAppTableRecord
  2
ACAD
 70
     0
  0
ENDTAB
  0
TABLE
  2
DIMSTYLE
  5
A
100
AcDbSymbolTable
 70
     1
  0
DIMSTYLE
105
1D
100
AcDbSymbolTableRecord
100
AcDbDimStyleTableRecord
  2
STANDARD
 70
     0
  3

  4

  5

  6

  7

 40
1.0
 41
0.18
 42
0.0625
 43
0.38
 44
0.18
 45
0.0
 46
0.0
 47
0.0
 48
0.0
140
0.18
141
0.09
142
0.0
143
25.4
144
1.0
145
0.0
146
1.0
147
0.09
 71
     0
 72
     0
 73
     1
 74
     1
 75
     0
 76
     0
 77
     0
 78
     0
170
     0
171
     2
172
     0
173
     0
174
     0
175
     0
176
     0
177
     0
178
     0
270
     2
271
     4
272
     4
273
     2
274
     2
340
F
275
     0
280
     0
281
     0
282
     0
283
     1
284
     0
285
     0
286
     0
287
     3
288
     0
  0
ENDTAB
  0
TABLE
  2
BLOCK_RECORD
  5
1
100
AcDbSymbolTable
 70
     2
  0
BLOCK_RECORD
  5
18
100
AcDbSymbolTableRecord
100
AcDbBlockTableRecord
  2
*MODEL_SPACE
  0
BLOCK_RECORD
  5
15
100
AcDbSymbolTableRecord
100
AcDbBlockTableRecord
  2
*PAPER_SPACE
  0
ENDTAB
  0
ENDSEC
  0
SECTION
  2
BLOCKS
  0
BLOCK
  5
19
100
AcDbEntity
  8
0
100
AcDbBlockBegin
  2
*MODEL_SPACE
 70
     0
 10
0.0
 20
0.0
 30
0.0
  3
*MODEL_SPACE
  1
     0
  0
ENDBLK
  5
1A
100
AcDbEntity
  8
0
100
AcDbBlockEnd
  0
BLOCK
  5
16
100
AcDbEntity
 67
     1
  8
0
100
AcDbBlockBegin
  2
*PAPER_SPACE
 70
     0
 10
0.0
 20
0.0
 30
0.0
  3
*PAPER_SPACE
  1
     0
  0
ENDBLK
  5
17
100
AcDbEntity
 67
     1
  8
0
100
AcDbBlockEnd
  0
ENDSEC
  0
SECTION
  2
ENTITIES
  0
LINE
  5
22
100
AcDbEntity
  8
DEFAULT
100
AcDbLine
 10
1445.9620
 20
1222.5564
 30
0.0000
 11
1495.0648
 21
974.8306
 31
0.0000
  0
LINE
  5
23
100
AcDbEntity
  8
DEFAULT
100
AcDbLine
 10
1186.4186
 20
474.6602
 30
0.0000
 11
1495.0648
 21
974.8306
 31
0.0000
  0
LINE
  5
24
100
AcDbEntity
  8
DEFAULT
100
AcDbLine
 10
300.2297
 20
349.6177
 30
0.0000
 11
1186.4186
 21
474.6602
 31
0.0000
  0
LINE
  5
25
100
AcDbEntity
  8
DEFAULT
100
AcDbLine
 10
274.5092
 20
569.0320
 30
0.0000
 11
300.2297
 21
349.6177
 31
0.0000
  0
LINE
  5
26
100
AcDbEntity
  8
DEFAULT
100
AcDbLine
 10
274.5092
 20
569.0320
 30
0.0000
 11
585.4937
 21
1118.7476
 31
0.0000
  0
LINE
  5
27
100
AcDbEntity
  8
DEFAULT
100
AcDbLine
 10
1310.3445
 20
1109.3108
 30
0.0000
 11
1468.1750
 21
1112.2604
 31
0.0000
  0
LINE
  5
28
100
AcDbEntity
  8
DEFAULT
100
AcDbLine
 10
1040.2790
 20
1193.6564
 30
0.0000
 11
1132.6391
 21
1076.8714
 31
0.0000
  0
LINE
  5
29
100
AcDbEntity
  8
DEFAULT
100
AcDbLine
 10
1068.3378
 20
1002.5538
 30
0.0000
 11
1132.6391
 21
1076.8714
 31
0.0000
  0
LINE
  5
2A
100
AcDbEntity
  8
DEFAULT
100
AcDbLine
 10
1034.4335
 20
965.9848
 30
0.0000
 11
1068.3378
 21
1002.5538
 31
0.0000
  0
LINE
  5
2B
100
AcDbEntity
  8
DEFAULT
100
AcDbLine
 10
979.4851
 20
897.5653
 30
0.0000
 11
1034.4335
 21
965.9848
 31
0.0000
  0
LINE
  5
2C
100
AcDbEntity
  8
DEFAULT
100
AcDbLine
 10
918.6911
 20
830.3254
 30
0.0000
 11
979.4851
 21
897.5653
 31
0.0000
  0
LINE
  5
2D
100
AcDbEntity
  8
DEFAULT
100
AcDbLine
 10
777.2283
 20
825.6068
 30
0.0000
 11
918.6911
 21
830.3254
 31
0.0000
  0
LINE
  5
2E
100
AcDbEntity
  8
DEFAULT
100
AcDbLine
 10
399.6041
 20
364.3651
 30
0.0000
 11
422.9864
 21
541.3122
 31
0.0000
  0
LINE
  5
2F
100
AcDbEntity
  8
DEFAULT
100
AcDbLine
 10
701.2355
 20
825.6073
 30
0.0000
 11
777.2283
 21
825.6068
 31
0.0000
  0
LINE
  5
30
100
AcDbEntity
  8
DEFAULT
100
AcDbLine
 10
489.6258
 20
949.4702
 30
0.0000
 11
701.2355
 21
825.6073
 31
0.0000
  0
LINE
  5
31
100
AcDbEntity
  8
DEFAULT
100
AcDbLine
 10
1499.7413
 20
1357.0362
 30
0.0000
 11
1502.0795
 21
1390.0663
 31
0.0000
  0
LINE
  5
32
100
AcDbEntity
  8
DEFAULT
100
AcDbLine
 10
1467.0061
 20
1283.8981
 30
0.0000
 11
1499.7413
 21
1357.0362
 31
0.0000
  0
LINE
  5
33
100
AcDbEntity
  8
DEFAULT
100
AcDbLine
 10
1467.0061
 20
1283.8981
 30
0.0000
 11
1485.7119
 21
1253.2273
 31
0.0000
  0
LINE
  5
34
100
AcDbEntity
  8
DEFAULT
100
AcDbLine
 10
1445.9620
 20
1222.5564
 30
0.0000
 11
1485.7119
 21
1253.2273
 31
0.0000
  0
ARC
  5
35
100
AcDbEntity
  8
DEFAULT
 62
   150
100
AcDbCircle
 10
305.8548
 20
80.2437
 30
0.0000
 40
71.3726
100
AcDbArc
 50
101.9761
 51
161.5269
  0
ARC
  5
36
100
AcDbEntity
  8
DEFAULT
 62
   150
100
AcDbCircle
 10
286.3537
 20
125.4752
 30
0.0000
 40
25.0309
100
AcDbArc
 50
359.9075
 51
79.1991
  0
ARC
  5
37
100
AcDbEntity
  8
DEFAULT
 62
   150
100
AcDbCircle
 10
392.1912
 20
121.7128
 30
0.0000
 40
80.8924
100
AcDbArc
 50
177.3629
 51
276.1673
  0
LINE
  5
38
100
AcDbEntity
  8
DEFAULT
 62
   150
100
AcDbLine
 10
400.8816
 20
41.2886
 30
0.0000
 11
681.5765
 21
47.4456
 31
0.0000
  0
ARC
  5
39
100
AcDbEntity
  8
DEFAULT
 62
   150
100
AcDbCircle
 10
694.1400
 20
95.4886
 30
0.0000
 40
49.6586
100
AcDbArc
 50
255.3450
 51
20.7974
  0
ARC
  5
3A
100
AcDbEntity
  8
DEFAULT
 62
   150
100
AcDbCircle
 10
1419.9697
 20
279.3606
 30
0.0000
 40
699.4493
100
AcDbArc
 50
175.9618
 51
193.7492
  0
ARC
  5
3B
100
AcDbEntity
  8
DEFAULT
 62
   150
100
AcDbCircle
 10
665.0228
 20
315.6528
 30
0.0000
 40
113.1534
100
AcDbArc
 50
346.7003
 51
17.2144
  0
ARC
  5
3C
100
AcDbEntity
  8
DEFAULT
 62
   150
100
AcDbCircle
 10
977.7207
 20
323.6788
 30
0.0000
 40
205.4222
100
AcDbArc
 50
189.5430
 51
279.9235
  0
ARC
  5
3D
100
AcDbEntity
  8
DEFAULT
 62
   150
100
AcDbCircle
 10
968.3394
 20
270.2210
 30
0.0000
 40
155.4799
100
AcDbArc
 50
286.7399
 51
317.1235
  0
ARC
  5
3E
100
AcDbEntity
  8
DEFAULT
 62
   150
100
AcDbCircle
 10
1114.3195
 20
68.1823
 30
0.0000
 40
100.8161
100
AcDbArc
 50
63.3298
 51
107.3159
  0
ARC
  5
3F
100
AcDbEntity
  8
DEFAULT
 62
   150
100
AcDbCircle
 10
1667.6690
 20
1021.7480
 30
0.0000
 40
1001.8753
100
AcDbArc
 50
239.5260
 51
250.6998
  0
LINE
  5
40
100
AcDbEntity
  8
DEFAULT
 62
   150
100
AcDbLine
 10
1336.5312
 20
76.1785
 30
0.0000
 11
1442.3002
 21
250.6278
 31
0.0000
  0
ARC
  5
41
100
AcDbEntity
  8
DEFAULT
 62
   150
100
AcDbCircle
 10
1128.0425
 20
278.3792
 30
0.0000
 40
315.4805
100
AcDbArc
 50
354.9534
 51
41.3122
  0
ARC
  5
42
100
AcDbEntity
  8
DEFAULT
 62
   150
100
AcDbCircle
 10
1439.6538
 20
493.2920
 30
0.0000
 40
74.9418
100
AcDbArc
 50
128.0304
 51
185.0868
  0
ARC
  5
43
100
AcDbEntity
  8
DEFAULT
 62
   150
100
AcDbCircle
 10
1370.9838
 20
708.9590
 30
0.0000
 40
158.2443
100
AcDbArc
 50
278.1743
 51
318.2715
  0
ARC
  5
44
100
AcDbEntity
  8
DEFAULT
 62
   150
100
AcDbCircle
 10
979.5002
 20
800.3002
 30
0.0000
 40
546.2168
100
AcDbArc
 50
338.8963
 51
11.0858
  0
ARC
  5
45
100
AcDbEntity
  8
DEFAULT
 62
   150
100
AcDbCircle
 10
1535.6801
 20
903.2728
 30
0.0000
 40
20.2596
100
AcDbArc
 50
65.7500
 51
174.1840
  0
ARC
  5
46
100
AcDbEntity
  8
DEFAULT
 62
   150
100
AcDbCircle
 10
1347.1258
 20
696.4728
 30
0.0000
 40
299.1775
100
AcDbArc
 50
356.3671
 51
48.8483
  0
LINE
  5
47
100
AcDbEntity
  8
DEFAULT
 62
   150
100
AcDbLine
 10
1645.7020
 20
677.5158
 30
0.0000
 11
1651.8043
 21
572.8461
 31
0.0000
  0
LINE
  5
48
100
AcDbEntity
  8
DEFAULT
 62
   150
100
AcDbLine
 10
238.1599
 20
102.8099
 30
0.0000
 11
238.1599
 21
102.8587
 31
0.0000
  0
ARC
  5
49
100
AcDbEntity
  8
DEFAULT
 62
   150
100
AcDbCircle
 10
190.9268
 20
111.0603
 30
0.0000
 40
47.9398
100
AcDbArc
 50
194.8820
 51
350.1494
  0
ARC
  5
4A
100
AcDbEntity
  8
DEFAULT
 62
   150
100
AcDbCircle
 10
756.2033
 20
325.9167
 30
0.0000
 40
34.0535
100
AcDbArc
 50
90.2026
 51
175.4524
  0
ARC
  5
4B
100
AcDbEntity
  8
DEFAULT
 62
   150
100
AcDbCircle
 10
756.9252
 20
342.4978
 30
0.0000
 40
17.4923
100
AcDbArc
 50
22.3172
 51
92.7597
  0
LINE
  5
4C
100
AcDbEntity
  8
DEFAULT
 62
    94
100
AcDbLine
 10
649.7957
 20
302.5262
 30
0.0000
 11
692.0270
 21
308.9180
 31
0.0000
  0
LINE
  5
4D
100
AcDbEntity
  8
DEFAULT
 62
    94
100
AcDbLine
 10
589.6161
 20
274.8286
 30
0.0000
 11
649.7957
 21
302.5262
 31
0.0000
  0
LINE
  5
4E
100
AcDbEntity
  8
DEFAULT
 62
    94
100
AcDbLine
 10
511.4883
 20
265.2410
 30
0.0000
 11
589.6161
 21
274.8286
 31
0.0000
  0
LINE
  5
4F
100
AcDbEntity
  8
DEFAULT
 62
    94
100
AcDbLine
 10
487.2053
 20
249.2616
 30
0.0000
 11
511.4883
 21
265.2410
 31
0.0000
  0
LINE
  5
50
100
AcDbEntity
  8
DEFAULT
 62
    94
100
AcDbLine
 10
473.4801
 20
226.8904
 30
0.0000
 11
487.2053
 21
249.2616
 31
0.0000
  0
LINE
  5
51
100
AcDbEntity
  8
DEFAULT
 62
    94
100
AcDbLine
 10
470.3128
 20
200.2581
 30
0.0000
 11
473.4801
 21
226.8904
 31
0.0000
  0
LINE
  5
52
100
AcDbEntity
  8
DEFAULT
 62
    94
100
AcDbLine
 10
470.3128
 20
176.8216
 30
0.0000
 11
470.3128
 21
200.2581
 31
0.0000
  0
LINE
  5
53
100
AcDbEntity
  8
DEFAULT
 62
    94
100
AcDbLine
 10
470.3128
 20
176.8216
 30
0.0000
 11
475.5917
 21
164.0381
 31
0.0000
  0
LINE
  5
54
100
AcDbEntity
  8
DEFAULT
 62
    94
100
AcDbLine
 10
475.5917
 20
164.0381
 30
0.0000
 11
486.1495
 21
155.5157
 31
0.0000
  0
LINE
  5
55
100
AcDbEntity
  8
DEFAULT
 62
    94
100
AcDbLine
 10
486.1495
 20
155.5157
 30
0.0000
 11
503.0420
 21
144.8628
 31
0.0000
  0
LINE
  5
56
100
AcDbEntity
  8
DEFAULT
 62
    94
100
AcDbLine
 10
503.0420
 20
144.8628
 30
0.0000
 11
528.3808
 21
135.2752
 31
0.0000
  0
LINE
  5
57
100
AcDbEntity
  8
DEFAULT
 62
    94
100
AcDbLine
 10
528.3808
 20
135.2752
 30
0.0000
 11
556.8869
 21
127.8181
 31
0.0000
  0
LINE
  5
58
100
AcDbEntity
  8
DEFAULT
 62
    94
100
AcDbLine
 10
556.8869
 20
127.8181
 30
0.0000
 11
719.4773
 21
125.6875
 31
0.0000
  0
ARC
  5
59
100
AcDbEntity
  8
DEFAULT
 62
    94
100
AcDbCircle
 10
985.5989
 20
259.2274
 30
0.0000
 40
297.7475
100
AcDbArc
 50
170.3931
 51
206.6475
  0
LINE
  5
5A
100
AcDbEntity
  8
DEFAULT
 62
    94
100
AcDbLine
 10
1175.5751
 20
278.0245
 30
0.0000
 11
1213.5832
 21
267.3716
 31
0.0000
  0
LINE
  5
5B
100
AcDbEntity
  8
DEFAULT
 62
    94
100
AcDbLine
 10
1151.2921
 20
278.0245
 30
0.0000
 11
1175.5751
 21
278.0245
 31
0.0000
  0
LINE
  5
5C
100
AcDbEntity
  8
DEFAULT
 62
    94
100
AcDbLine
 10
1042.5466
 20
267.3716
 30
0.0000
 11
1151.2921
 21
278.0245
 31
0.0000
  0
LINE
  5
5D
100
AcDbEntity
  8
DEFAULT
 62
    94
100
AcDbLine
 10
1001.3711
 20
269.5021
 30
0.0000
 11
1042.5466
 21
267.3716
 31
0.0000
  0
LINE
  5
5E
100
AcDbEntity
  8
DEFAULT
 62
    94
100
AcDbLine
 10
945.4146
 20
276.9592
 30
0.0000
 11
1001.3711
 21
269.5021
 31
0.0000
  0
LINE
  5
5F
100
AcDbEntity
  8
DEFAULT
 62
    94
100
AcDbLine
 10
901.0718
 20
285.4815
 30
0.0000
 11
945.4146
 21
276.9592
 31
0.0000
  0
LINE
  5
60
100
AcDbEntity
  8
DEFAULT
 62
    94
100
AcDbLine
 10
874.6772
 20
288.6774
 30
0.0000
 11
901.0718
 21
285.4815
 31
0.0000
  0
LINE
  5
61
100
AcDbEntity
  8
DEFAULT
 62
    94
100
AcDbLine
 10
851.4500
 20
284.4162
 30
0.0000
 11
874.6772
 21
288.6774
 31
0.0000
  0
LINE
  5
62
100
AcDbEntity
  8
DEFAULT
 62
    94
100
AcDbLine
 10
834.5575
 20
270.5674
 30
0.0000
 11
851.4500
 21
284.4162
 31
0.0000
  0
LINE
  5
63
100
AcDbEntity
  8
DEFAULT
 62
    94
100
AcDbLine
 10
827.1671
 20
256.7186
 30
0.0000
 11
834.5575
 21
270.5674
 31
0.0000
  0
LINE
  5
64
100
AcDbEntity
  8
DEFAULT
 62
    94
100
AcDbLine
 10
827.1671
 20
247.1310
 30
0.0000
 11
827.1671
 21
256.7186
 31
0.0000
  0
LINE
  5
65
100
AcDbEntity
  8
DEFAULT
 62
    94
100
AcDbLine
 10
827.1671
 20
247.1310
 30
0.0000
 11
829.2786
 21
234.3475
 31
0.0000
  0
LINE
  5
66
100
AcDbEntity
  8
DEFAULT
 62
    94
100
AcDbLine
 10
829.2786
 20
234.3475
 30
0.0000
 11
836.6691
 21
222.6292
 31
0.0000
  0
LINE
  5
67
100
AcDbEntity
  8
DEFAULT
 62
    94
100
AcDbLine
 10
836.6691
 20
222.6292
 30
0.0000
 11
888.4024
 21
152.3199
 31
0.0000
  0
LINE
  5
68
100
AcDbEntity
  8
DEFAULT
 62
    94
100
AcDbLine
 10
888.4024
 20
152.3199
 30
0.0000
 11
908.4623
 21
144.8628
 31
0.0000
  0
LINE
  5
69
100
AcDbEntity
  8
DEFAULT
 62
    94
100
AcDbLine
 10
908.4623
 20
144.8628
 30
0.0000
 11
934.8568
 21
142.7322
 31
0.0000
  0
LINE
  5
6A
100
AcDbEntity
  8
DEFAULT
 62
    94
100
AcDbLine
 10
934.8568
 20
142.7322
 30
0.0000
 11
961.2514
 21
145.9281
 31
0.0000
  0
LINE
  5
6B
100
AcDbEntity
  8
DEFAULT
 62
    94
100
AcDbLine
 10
961.2514
 20
145.9281
 30
0.0000
 11
985.5343
 21
154.4505
 31
0.0000
  0
LINE
  5
6C
100
AcDbEntity
  8
DEFAULT
 62
    94
100
AcDbLine
 10
985.5343
 20
154.4505
 30
0.0000
 11
1009.8173
 21
162.9728
 31
0.0000
  0
LINE
  5
6D
100
AcDbEntity
  8
DEFAULT
 62
    94
100
AcDbLine
 10
1009.8173
 20
162.9728
 30
0.0000
 11
1066.8295
 21
184.2787
 31
0.0000
  0
LINE
  5
6E
100
AcDbEntity
  8
DEFAULT
 62
    94
100
AcDbLine
 10
1066.8295
 20
184.2787
 30
0.0000
 11
1085.8336
 21
187.4745
 31
0.0000
  0
LINE
  5
6F
100
AcDbEntity
  8
DEFAULT
 62
    94
100
AcDbLine
 10
1085.8336
 20
187.4745
 30
0.0000
 11
1100.6146
 21
188.5398
 31
0.0000
  0
LINE
  5
70
100
AcDbEntity
  8
DEFAULT
 62
    94
100
AcDbLine
 10
1100.6146
 20
188.5398
 30
0.0000
 11
1166.0730
 21
173.6257
 31
0.0000
  0
LINE
  5
71
100
AcDbEntity
  8
DEFAULT
 62
    94
100
AcDbLine
 10
1166.0730
 20
173.6257
 30
0.0000
 11
1184.0213
 21
162.9728
 31
0.0000
  0
ARC
  5
72
100
AcDbEntity
  8
DEFAULT
 62
    94
100
AcDbCircle
 10
1230.7979
 20
206.1121
 30
0.0000
 40
63.6322
100
AcDbArc
 50
105.6960
 51
222.6835
  0
LINE
  5
73
100
AcDbEntity
  8
DEFAULT
 62
    94
100
AcDbLine
 10
631.6097
 20
1292.7149
 30
0.0000
 11
644.5739
 21
1326.1442
 31
0.0000
  0
LINE
  5
74
100
AcDbEntity
  8
DEFAULT
 62
    94
100
AcDbLine
 10
644.5739
 20
1326.1442
 30
0.0000
 11
646.0144
 21
1355.2132
 31
0.0000
  0
LINE
  5
75
100
AcDbEntity
  8
DEFAULT
 62
    94
100
AcDbLine
 10
638.8120
 20
1388.6425
 30
0.0000
 11
646.0144
 21
1355.2132
 31
0.0000
  0
LINE
  5
76
100
AcDbEntity
  8
DEFAULT
 62
    94
100
AcDbLine
 10
624.4073
 20
1406.0838
 30
0.0000
 11
638.8120
 21
1388.6425
 31
0.0000
  0
LINE
  5
77
100
AcDbEntity
  8
DEFAULT
 62
    94
100
AcDbLine
 10
601.3598
 20
1419.1649
 30
0.0000
 11
624.4073
 21
1406.0838
 31
0.0000
  0
LINE
  5
78
100
AcDbEntity
  8
DEFAULT
 62
    94
100
AcDbLine
 10
575.4313
 20
1422.0718
 30
0.0000
 11
601.3598
 21
1419.1649
 31
0.0000
  0
LINE
  5
79
100
AcDbEntity
  8
DEFAULT
 62
    94
100
AcDbLine
 10
550.9433
 20
1422.0718
 30
0.0000
 11
575.4313
 21
1422.0718
 31
0.0000
  0
LINE
  5
7A
100
AcDbEntity
  8
DEFAULT
 62
    94
100
AcDbLine
 10
519.2529
 20
1411.8976
 30
0.0000
 11
550.9433
 21
1422.0718
 31
0.0000
  0
LINE
  5
7B
100
AcDbEntity
  8
DEFAULT
 62
    94
100
AcDbLine
 10
497.6459
 20
1397.3632
 30
0.0000
 11
519.2529
 21
1411.8976
 31
0.0000
  0
LINE
  5
7C
100
AcDbEntity
  8
DEFAULT
 62
    94
100
AcDbLine
 10
271.4919
 20
1135.7425
 30
0.0000
 11
497.6459
 21
1397.3632
 31
0.0000
  0
LINE
  5
7D
100
AcDbEntity
  8
DEFAULT
 62
    94
100
AcDbLine
 10
254.2063
 20
1099.4063
 30
0.0000
 11
271.4919
 21
1135.7425
 31
0.0000
  0
LINE
  5
7E
100
AcDbEntity
  8
DEFAULT
 62
    94
100
AcDbLine
 10
218.1945
 20
958.4218
 30
0.0000
 11
254.2063
 21
1099.4063
 31
0.0000
  0
LINE
  5
7F
100
AcDbEntity
  8
DEFAULT
 62
    94
100
AcDbLine
 10
182.1827
 20
866.8546
 30
0.0000
 11
218.1945
 21
958.4218
 31
0.0000
  0
LINE
  5
80
100
AcDbEntity
  8
DEFAULT
 62
    94
100
AcDbLine
 10
138.9686
 20
772.3805
 30
0.0000
 11
182.1827
 21
866.8546
 31
0.0000
  0
LINE
  5
81
100
AcDbEntity
  8
DEFAULT
 62
    94
100
AcDbLine
 10
615.7645
 20
1269.4602
 30
0.0000
 11
631.6097
 21
1292.7149
 31
0.0000
  0
LINE
  5
82
100
AcDbEntity
  8
DEFAULT
 62
    94
100
AcDbLine
 10
578.3122
 20
1247.6584
 30
0.0000
 11
615.7645
 21
1269.4602
 31
0.0000
  0
LINE
  5
83
100
AcDbEntity
  8
DEFAULT
 62
    94
100
AcDbLine
 10
476.0388
 20
1205.5084
 30
0.0000
 11
578.3122
 21
1247.6584
 31
0.0000
  0
LINE
  5
84
100
AcDbEntity
  8
DEFAULT
 62
    94
100
AcDbLine
 10
434.2651
 20
1180.7998
 30
0.0000
 11
476.0388
 21
1205.5084
 31
0.0000
  0
LINE
  5
85
100
AcDbEntity
  8
DEFAULT
 62
    94
100
AcDbLine
 10
415.5390
 20
1153.1843
 30
0.0000
 11
434.2651
 21
1180.7998
 31
0.0000
  0
LINE
  5
86
100
AcDbEntity
  8
DEFAULT
 62
    94
100
AcDbLine
 10
285.8966
 20
914.8188
 30
0.0000
 11
415.5390
 21
1153.1843
 31
0.0000
  0
LINE
  5
87
100
AcDbEntity
  8
DEFAULT
 62
    94
100
AcDbLine
 10
137.5281
 20
596.5137
 30
0.0000
 11
285.8966
 21
914.8188
 31
0.0000
  0
LINE
  5
88
100
AcDbEntity
  8
DEFAULT
100
AcDbLine
 10
1145.4993
 20
1582.9396
 30
0.0000
 11
1285.3149
 21
1402.2642
 31
0.0000
  0
LINE
  5
89
100
AcDbEntity
  8
DEFAULT
100
AcDbLine
 10
1034.4335
 20
1490.9271
 30
0.0000
 11
1150.9710
 21
1343.6332
 31
0.0000
  0
LINE
  5
8A
100
AcDbEntity
  8
DEFAULT
100
AcDbLine
 10
930.3823
 20
1403.6333
 30
0.0000
 11
1041.8050
 21
1271.8644
 31
0.0000
  0
LINE
  5
8B
100
AcDbEntity
  8
DEFAULT
100
AcDbLine
 10
816.9778
 20
1310.4424
 30
0.0000
 11
929.9399
 21
1184.8054
 31
0.0000
  0
LINE
  5
8C
100
AcDbEntity
  8
DEFAULT
100
AcDbLine
 10
1299.8460
 20
1295.0346
 30
0.0000
 11
1445.9620
 21
1222.5564
 31
0.0000
  0
LINE
  5
8D
100
AcDbEntity
  8
DEFAULT
100
AcDbLine
 10
536.3903
 20
1028.5066
 30
0.0000
 11
780.3002
 21
1048.4949
 31
0.0000
  0
LINE
  5
8E
100
AcDbEntity
  8
DEFAULT
100
AcDbLine
 10
664.9933
 20
846.8404
 30
0.0000
 11
797.6159
 21
1008.4313
 31
0.0000
  0
LINE
  5
8F
100
AcDbEntity
  8
DEFAULT
100
AcDbLine
 10
858.3231
 20
994.4142
 30
0.0000
 11
918.6911
 21
830.3254
 31
0.0000
  0
LINE
  5
90
100
AcDbEntity
  8
DEFAULT
100
AcDbLine
 10
924.4755
 20
1102.8212
 30
0.0000
 11
1034.4335
 21
965.9848
 31
0.0000
  0
LINE
  5
91
100
AcDbEntity
  8
DEFAULT
100
AcDbLine
 10
1132.6391
 20
1076.8714
 30
0.0000
 11
1247.9550
 21
1095.8422
 31
0.0000
  0
LINE
  5
92
100
AcDbEntity
  8
DEFAULT
100
AcDbLine
 10
1320.8109
 20
991.0593
 30
0.0000
 11
1454.1456
 21
912.9004
 31
0.0000
  0
LINE
  5
93
100
AcDbEntity
  8
DEFAULT
100
AcDbLine
 10
1261.1481
 20
872.9914
 30
0.0000
 11
1375.8149
 21
783.1395
 31
0.0000
  0
LINE
  5
94
100
AcDbEntity
  8
DEFAULT
100
AcDbLine
 10
1177.1200
 20
762.6108
 30
0.0000
 11
1302.1607
 21
665.1748
 31
0.0000
  0
LINE
  5
95
100
AcDbEntity
  8
DEFAULT
100
AcDbLine
 10
1080.3654
 20
657.3143
 30
0.0000
 11
1186.4186
 21
474.6602
 31
0.0000
  0
LINE
  5
96
100
AcDbEntity
  8
DEFAULT
100
AcDbLine
 10
918.6911
 20
830.3254
 30
0.0000
 11
946.3134
 21
688.5463
 31
0.0000
  0
LINE
  5
97
100
AcDbEntity
  8
DEFAULT
100
AcDbLine
 10
717.6031
 20
1226.6874
 30
0.0000
 11
806.2684
 21
1099.0693
 31
0.0000
  0
LINE
  5
98
100
AcDbEntity
  8
DEFAULT
100
AcDbLine
 10
777.2283
 20
825.6068
 30
0.0000
 11
795.1314
 21
669.0482
 31
0.0000
  0
LINE
  5
99
100
AcDbEntity
  8
DEFAULT
100
AcDbLine
 10
820.6264
 20
597.7152
 30
0.0000
 11
847.3751
 21
428.0661
 31
0.0000
  0
LINE
  5
9A
100
AcDbEntity
  8
DEFAULT
100
AcDbLine
 10
422.9864
 20
541.3122
 30
0.0000
 11
508.3317
 21
556.6476
 31
0.0000
  0
LINE
  5
9B
100
AcDbEntity
  8
DEFAULT
100
AcDbLine
 10
274.5092
 20
569.0320
 30
0.0000
 11
517.1573
 21
620.5462
 31
0.0000
  0
LINE
  5
9C
100
AcDbEntity
  8
DEFAULT
100
AcDbLine
 10
508.3317
 20
556.6476
 30
0.0000
 11
532.9545
 21
579.7685
 31
0.0000
  0
LINE
  5
9D
100
AcDbEntity
  8
DEFAULT
100
AcDbLine
 10
412.4642
 20
811.4513
 30
0.0000
 11
544.7054
 21
675.5478
 31
0.0000
  0
LINE
  5
9E
100
AcDbEntity
  8
DEFAULT
100
AcDbLine
 10
608.4816
 20
681.9775
 30
0.0000
 11
664.9933
 21
846.8404
 31
0.0000
  0
LINE
  5
9F
100
AcDbEntity
  8
DEFAULT
100
AcDbLine
 10
585.4937
 20
1118.7476
 30
0.0000
 11
1226.7597
 21
1649.2281
 31
0.0000
  0
LINE
  5
A0
100
AcDbEntity
  8
DEFAULT
100
AcDbLine
 10
979.4851
 20
897.5653
 30
0.0000
 11
1110.1264
 21
782.0672
 31
0.0000
  0
LINE
  5
A1
100
AcDbEntity
  8
DEFAULT
100
AcDbLine
 10
1068.3378
 20
1002.5538
 30
0.0000
 11
1195.7238
 21
900.4474
 31
0.0000
  0
LINE
  5
A2
100
AcDbEntity
  8
DEFAULT
100
AcDbLine
 10
678.7168
 20
578.8222
 30
0.0000
 11
706.2776
 21
406.9116
 31
0.0000
  0
LINE
  5
A3
100
AcDbEntity
  8
DEFAULT
100
AcDbLine
 10
546.8363
 20
384.4141
 30
0.0000
 11
552.6345
 21
564.3140
 31
0.0000
  0
LINE
  5
A4
100
AcDbEntity
  8
DEFAULT
100
AcDbLine
 10
961.5237
 20
616.4733
 30
0.0000
 11
995.4765
 21
447.7180
 31
0.0000
  0
LINE
  5
A5
100
AcDbEntity
  8
DEFAULT
100
AcDbLine
 10
1502.0795
 20
1390.0662
 30
0.0000
 11
1546.5059
 21
1463.2044
 31
0.0000
  0
ARC
  5
A6
100
AcDbEntity
  8
DEFAULT
100
AcDbCircle
 10
2122.0692
 20
2778.5633
 30
0.0000
 40
1441.1720
100
AcDbArc
 50
218.5311
 51
240.8575
  0
ARC
  5
A7
100
AcDbEntity
  8
DEFAULT
100
AcDbCircle
 10
2016.7979
 20
2626.4838
 30
0.0000
 40
1162.4354
100
AcDbArc
 50
217.3829
 51
248.9599
  0
ARC
  5
A8
100
AcDbEntity
  8
DEFAULT
100
AcDbCircle
 10
1633.9992
 20
1730.5039
 30
0.0000
 40
281.2545
100
AcDbArc
 50
238.1812
 51
251.8756
  0
ELLIPSE
  5
A9
100
AcDbEntity
  8
DEFAULT
 62
    94
100
AcDbEllipse
 10
1023.9071
 20
1675.2577
 30
0.0000
 11
-60.1394
 21
50.3786
 31
0.0000
 40
0.643233
 41
0.0
 42
6.283185307179586
  0
ARC
  5
AA
100
AcDbEntity
  8
DEFAULT
 62
   150
100
AcDbCircle
 10
566.2139
 20
1321.8093
 30
0.0000
 40
153.2757
100
AcDbArc
 50
38.7832
 51
126.0352
  0
ARC
  5
AB
100
AcDbEntity
  8
DEFAULT
 62
   150
100
AcDbCircle
 10
770.8472
 20
1501.5130
 30
0.0000
 40
119.3975
100
AcDbArc
 50
224.5060
 51
318.1215
  0
ARC
  5
AC
100
AcDbEntity
  8
DEFAULT
 62
   150
100
AcDbCircle
 10
594.1625
 20
1635.7135
 30
0.0000
 40
341.0129
100
AcDbArc
 50
321.1515
 51
2.2857
  0
ARC
  5
AD
100
AcDbEntity
  8
DEFAULT
 62
   150
100
AcDbCircle
 10
1122.9652
 20
1698.6059
 30
0.0000
 40
194.4137
100
AcDbArc
 50
134.6534
 51
194.6871
  0
ARC
  5
AE
100
AcDbEntity
  8
DEFAULT
 62
     1
100
AcDbCircle
 10
1328.9637
 20
1575.5347
 30
0.0000
 40
106.9349
100
AcDbArc
 50
300.9746
 51
328.6044
  0
ARC
  5
AF
100
AcDbEntity
  8
DEFAULT
 62
     1
100
AcDbCircle
 10
1389.3649
 20
1541.1550
 30
0.0000
 40
108.3823
100
AcDbArc
 50
290.4632
 51
332.7422
  0
ARC
  5
B0
100
AcDbEntity
  8
DEFAULT
 62
     1
100
AcDbCircle
 10
1500.3078
 20
1242.6884
 30
0.0000
 40
267.7431
100
AcDbArc
 50
115.7475
 51
156.7940
  0
ARC
  5
B1
100
AcDbEntity
  8
DEFAULT
 62
     1
100
AcDbCircle
 10
1517.2579
 20
1231.8681
 30
0.0000
 40
226.4021
100
AcDbArc
 50
113.4239
 51
192.6080
  0
ARC
  5
B2
100
AcDbEntity
  8
DEFAULT
 62
     1
100
AcDbCircle
 10
1189.2695
 20
1205.4502
 30
0.0000
 40
143.3922
100
AcDbArc
 50
69.6953
 51
132.2328
  0
LINE
  5
B3
100
AcDbEntity
  8
DEFAULT
 62
     1
100
AcDbLine
 10
832.1768
 20
1108.7213
 30
0.0000
 11
1092.8897
 21
1311.6210
 31
0.0000
  0
ARC
  5
B4
100
AcDbEntity
  8
DEFAULT
 62
     1
100
AcDbCircle
 10
839.2300
 20
1050.1908
 30
0.0000
 40
58.9540
100
AcDbArc
 50
96.8713
 51
26.9079
  0
LINE
  5
B5
100
AcDbEntity
  8
DEFAULT
 62
     1
100
AcDbLine
 10
891.8013
 20
1076.8707
 30
0.0000
 11
1127.9626
 21
1264.4347
 31
0.0000
  0
ARC
  5
B6
100
AcDbEntity
  8
DEFAULT
 62
     1
100
AcDbCircle
 10
1194.0364
 20
1186.9120
 30
0.0000
 40
101.8603
100
AcDbArc
 50
67.3987
 51
130.4414
  0
ARC
  5
B7
100
AcDbEntity
  8
DEFAULT
 62
     1
100
AcDbCircle
 10
1966.3018
 20
1246.3118
 30
0.0000
 40
733.9367
100
AcDbArc
 50
177.2949
 51
194.3915
  0
LINE
  5
B8
100
AcDbEntity
  8
DEFAULT
 62
     1
100
AcDbLine
 10
1296.3153
 20
1182.4490
 30
0.0000
 11
1310.3447
 21
1109.3109
 31
0.0000
  0
ARC
  5
B9
100
AcDbEntity
  8
DEFAULT
 62
     1
100
AcDbCircle
 10
1101.8038
 20
1031.2641
 30
0.0000
 40
222.6669
100
AcDbArc
 50
322.1431
 51
20.5184
  0
ARC
  5
BA
100
AcDbEntity
  8
DEFAULT
 62
     1
100
AcDbCircle
 10
1158.9505
 20
1026.1458
 30
0.0000
 40
103.5699
100
AcDbArc
 50
328.1150
 51
21.3754
  0
LINE
  5
BB
100
AcDbEntity
  8
DEFAULT
 62
     1
100
AcDbLine
 10
1111.5951
 20
783.7285
 30
0.0000
 11
1246.8927
 21
971.4384
 31
0.0000
  0
LINE
  5
BC
100
AcDbEntity
  8
DEFAULT
 62
     1
100
AcDbLine
 10
1153.6833
 20
731.8239
 30
0.0000
 11
1277.6094
 21
894.6152
 31
0.0000
  0
ARC
  5
BD
100
AcDbEntity
  8
DEFAULT
 62
     1
100
AcDbCircle
 10
941.5552
 20
867.2316
 30
0.0000
 40
251.6616
100
AcDbArc
 50
274.1141
 51
327.4487
  0
ARC
  5
BE
100
AcDbEntity
  8
DEFAULT
 62
     1
100
AcDbCircle
 10
931.5624
 20
905.9224
 30
0.0000
 40
217.5848
100
AcDbArc
 50
275.5473
 51
325.8340
  0
LINE
  5
BF
100
AcDbEntity
  8
DEFAULT
 62
     1
100
AcDbLine
 10
622.9052
 20
571.3918
 30
0.0000
 11
959.6102
 21
616.2186
 31
0.0000
  0
LINE
  5
C0
100
AcDbEntity
  8
DEFAULT
 62
     1
100
AcDbLine
 10
641.6110
 20
649.2485
 30
0.0000
 11
952.5956
 21
689.3566
 31
0.0000
  0
ARC
  5
C1
100
AcDbEntity
  8
DEFAULT
 62
     1
100
AcDbCircle
 10
582.2833
 20
622.3271
 30
0.0000
 40
65.1502
100
AcDbArc
 50
24.4072
 51
308.5732
  0
ARC
  5
C2
100
AcDbEntity
  8
DEFAULT
 62
     1
100
AcDbCircle
 10
1242.4949
 20
1351.6672
 30
0.0000
 40
12.2365
100
AcDbArc
 50
253.5432
 51
343.4880
  0
ENDSEC
  0
SECTION
  2
OBJECTS
  0
DICTIONARY
  5
C
100
AcDbDictionary
  3
ACAD_GROUP
350
D
  3
ACAD_MLINESTYLE
350
1B
  0
DICTIONARY
  5
D
102
{ACAD_REACTORS
330
C
102
}
100
AcDbDictionary
  0
DICTIONARY
  5
1B
102
{ACAD_REACTORS
330
C
102
}
100
AcDbDictionary
  3
STANDARD
350
1C
  0
MLINESTYLE
  5
1C
102
{ACAD_REACTORS
330
1B
102
}
100
AcDbMlineStyle
  2
STANDARD
 70
     0
  3

 62
   256
 51
90.0
 52
90.0
 71
     2
 49
0.5
 62
   256
  6
BYLAYER
 49
-0.5
 62
   256
  6
BYLAYER
  0
ENDSEC
  0
EOF
